# xmcd
# Track frame offsets:
# 150
# 14549
# 23487
# 37619
# 45431
# 59482
# 73242
# 89871
# 103276
#
# Disc length: 1513 seconds
# Revision: 0
# Processed by: cddbd v1.5.1PL2 Copyright (c) Steve Scherf et al.
# Submitted via: VisiTrax 2.10.0.248 - For more info visit www.synapsa.com
#
DISCID=7505e709
DTITLE=Johnny Cash - Johnny Cash
DYEAR=1964
DGENRE=Countru
TTITLE0=Nine Pound Hammer
TTITLE1=Lorena
TTITLE2=The Long Black Veil
TTITLE3=When Papa Played the Debro
TTITLE4=I Still Miss Sommone
TTITLE5=Bad News
TTITLE6=The Street of Laredo
TTITLE7=Domn't Think Twice, Its All Right
TTITLE8=Frankie's Man Johnny
EXTD=CBS S- 52 707
EXTT0=
EXTT1=
EXTT2=
EXTT3=
EXTT4=
EXTT5=
EXTT6=
EXTT7=
EXTT8=
PLAYORDER=
